<svg xmlns="http://www.w3.org/2000/svg" xmlns:xlink="http://www.w3.org/1999/xlink" viewBox="0 0 68.68 68.68"><defs><style>.cls-1{fill:url(#linear-gradient);}</style><linearGradient id="linear-gradient" x1="-18.01" y1="-8" x2="63.95" y2="52.77" gradientUnits="userSpaceOnUse"><stop offset="0" stop-color="#4abcd0"/><stop offset="1" stop-color="#c4e6ea"/></linearGradient></defs><g id="Layer_2" data-name="Layer 2"><g id="Layer_1-2" data-name="Layer 1"><path class="cls-1" d="M62.64,0H6A6,6,0,0,0,0,6V9.1A22.06,22.06,0,0,0,4.81,22.82a22.45,22.45,0,0,0,10.33,7.11l2.14.71a20,20,0,0,0,11,8.62v3.13a2,2,0,0,1-2,2,6,6,0,0,0-6,6v2h-2a2,2,0,0,0-2,2v10.2h-2a2,2,0,1,0,0,4H54.46a2,2,0,0,0,0-4h-2V54.46a2,2,0,0,0-2-2h-2v-2a6,6,0,0,0-6-6,2,2,0,0,1-2-2V39.26a20,20,0,0,0,11-8.61l2.25-.71h0a21.94,21.94,0,0,0,15-20.83V6a6,6,0,0,0-6-6ZM8,20.3A18,18,0,0,1,4,9.1V6A2,2,0,0,1,6,4h6.38l2.05,18.43a19.61,19.61,0,0,0,.61,3.16A18.35,18.35,0,0,1,8,20.3ZM20.26,64.66V56.47H48.43v8.19Zm17.65-28.9a2,2,0,0,0-1.56,2v4.66a6,6,0,0,0,6,6,2,2,0,0,1,2,2v2H24.28v-2a2,2,0,0,1,2-2,6,6,0,0,0,6-6V37.73a2,2,0,0,0-1.56-2A15.94,15.94,0,0,1,18.47,22l-2-18H52.21l-2,18A16,16,0,0,1,37.91,35.76ZM64.66,9.1A17.94,17.94,0,0,1,53.58,25.67a19.1,19.1,0,0,0,.63-3.22L56.26,4h6.38a2,2,0,0,1,2,2Z"/></g></g></svg>