<svg xmlns="http://www.w3.org/2000/svg" xmlns:xlink="http://www.w3.org/1999/xlink" viewBox="0 0 77.69 88.84"><defs><style>.cls-1{fill:url(#linear-gradient);}.cls-2{fill:url(#linear-gradient-2);}.cls-3{fill:url(#linear-gradient-3);}.cls-4{fill:url(#linear-gradient-4);}</style><linearGradient id="linear-gradient" x1="-5.96" y1="-6.22" x2="87.5" y2="71.34" gradientUnits="userSpaceOnUse"><stop offset="0" stop-color="#4abcd0"/><stop offset="1" stop-color="#c4e9ec"/></linearGradient><linearGradient id="linear-gradient-2" x1="-11.44" y1="0.38" x2="82.02" y2="77.94" xlink:href="#linear-gradient"/><linearGradient id="linear-gradient-3" x1="-20.33" y1="11.09" x2="73.13" y2="88.65" xlink:href="#linear-gradient"/><linearGradient id="linear-gradient-4" x1="-11.44" y1="0.38" x2="82.02" y2="77.94" xlink:href="#linear-gradient"/></defs><g id="Layer_2" data-name="Layer 2"><g id="Layer_1-2" data-name="Layer 1"><path class="cls-1" d="M27.69,35.87H55.57a2.6,2.6,0,0,0,0-5.2H27.69a2.6,2.6,0,0,0,0,5.2Z"/><path class="cls-2" d="M27.69,47H55.57a2.6,2.6,0,1,0,0-5.2H27.69a2.6,2.6,0,1,0,0,5.2Z"/><path class="cls-3" d="M27.69,58.17H38.84a2.6,2.6,0,1,0,0-5.2H27.69a2.6,2.6,0,0,0,0,5.2Z"/><path class="cls-4" d="M75.08,0H8.18A2.6,2.6,0,0,0,5.57,2.6V13.94h-3a2.6,2.6,0,0,0,0,5.2h3v8.74h-3a2.6,2.6,0,0,0,0,5.2h3v8.74h-3a2.6,2.6,0,1,0,0,5.2h3v8.73h-3A2.61,2.61,0,0,0,2.6,61h3v8.73h-3a2.61,2.61,0,0,0,0,5.21h3V86.23a2.61,2.61,0,0,0,2.61,2.61h66.9a2.61,2.61,0,0,0,2.61-2.61V2.6A2.6,2.6,0,0,0,75.08,0Zm-2.6,83.63H10.78V74.9h3a2.61,2.61,0,1,0,0-5.21h-3V61h3a2.61,2.61,0,1,0,0-5.21h-3V47h3a2.6,2.6,0,1,0,0-5.2h-3V33.08h3a2.6,2.6,0,1,0,0-5.2h-3V19.14h3a2.6,2.6,0,1,0,0-5.2h-3V5.21h61.7Z"/></g></g></svg>