<svg xmlns="http://www.w3.org/2000/svg" xmlns:xlink="http://www.w3.org/1999/xlink" width="46.554" height="44.249" viewBox="0 0 46.554 44.249">
  <defs>
    <linearGradient id="linear-gradient" y1="0.5" x2="1" y2="0.5" gradientUnits="objectBoundingBox">
      <stop offset="0" stop-color="#04a4b0"/>
      <stop offset="0.984" stop-color="#70bdcc"/>
    </linearGradient>
  </defs>
  <path id="Path_7" data-name="Path 7" d="M39.459,56.925H28.011a1.369,1.369,0,0,1-1.369-1.369V43.977H19.913V55.556a1.369,1.369,0,0,1-1.369,1.369H7.095a1.369,1.369,0,0,1-1.369-1.369V36.486H2.39A2.387,2.387,0,0,1,.782,32.335L21.669,13.3a2.376,2.376,0,0,1,3.216,0l4.75,4.328v-.761A1.369,1.369,0,0,1,31,15.5h9.467a1.369,1.369,0,0,1,1.369,1.369V28.751l3.933,3.583a2.387,2.387,0,0,1-1.608,4.152H40.828V55.556A1.369,1.369,0,0,1,39.459,56.925ZM29.38,54.187h8.71V35.117a1.369,1.369,0,0,1,1.369-1.369h3.8l-3.71-3.381a1.369,1.369,0,0,1-.447-1.012V18.238H32.373V20.73a1.369,1.369,0,0,1-2.291,1.012l-6.8-6.2L3.3,33.748h3.8a1.369,1.369,0,0,1,1.369,1.369V54.187h8.711V42.608a1.369,1.369,0,0,1,1.369-1.369h9.467a1.369,1.369,0,0,1,1.369,1.369V54.187Z" transform="translate(0 -12.676)" fill="url(#linear-gradient)"/>
</svg>
