<svg xmlns="http://www.w3.org/2000/svg" xmlns:xlink="http://www.w3.org/1999/xlink" viewBox="0 0 94.55 94.55"><defs><style>.cls-1{fill:url(#linear-gradient);}</style><linearGradient id="linear-gradient" x1="-20.75" y1="-18.86" x2="117.12" y2="115.18" gradientUnits="userSpaceOnUse"><stop offset="0" stop-color="#4abcd0"/><stop offset="1" stop-color="#c4e9ec"/></linearGradient></defs><g id="Layer_2" data-name="Layer 2"><g id="Layer_1-2" data-name="Layer 1"><path class="cls-1" d="M47.28,0A47.28,47.28,0,1,0,94.55,47.28,47.25,47.25,0,0,0,47.28,0Zm0,87.17A39.89,39.89,0,1,1,87.17,47.28,39.87,39.87,0,0,1,47.28,87.17ZM62.05,38.5A14.79,14.79,0,0,1,51,52.81v6a3.7,3.7,0,0,1-7.39,0V49.59a3.7,3.7,0,0,1,3.7-3.7,7.39,7.39,0,1,0-7.39-7.39,3.7,3.7,0,1,1-7.39,0,14.78,14.78,0,0,1,29.55,0ZM51.89,69.9a4.62,4.62,0,1,1-4.61-4.62A4.61,4.61,0,0,1,51.89,69.9Z"/></g></g></svg>