<svg xmlns="http://www.w3.org/2000/svg" viewBox="0 0 61 61"><defs><style>.cls-1{fill:#c4e9ec;}.cls-2{fill:#fff;}</style></defs><g id="Layer_2" data-name="Layer 2"><g id="Layer_1-2" data-name="Layer 1"><circle class="cls-1" cx="30.5" cy="30.5" r="30.5"/><path class="cls-2" d="M27.53,39.32h9.18a3.31,3.31,0,0,1,2.09.56,1.82,1.82,0,0,1,.72,1.53A2,2,0,0,1,39,42.87a2.33,2.33,0,0,1-1.74.59H24.28a2.79,2.79,0,0,1-2.06-.73A2.32,2.32,0,0,1,21.48,41,4.35,4.35,0,0,1,22,39.34a5.94,5.94,0,0,1,1-1.64c1.56-1.62,3-3,4.22-4.16a30.43,30.43,0,0,1,2.69-2.28,15.94,15.94,0,0,0,2.4-2,8.1,8.1,0,0,0,1.46-2.11,5.08,5.08,0,0,0,.5-2.12,3.87,3.87,0,0,0-.53-2,3.66,3.66,0,0,0-1.46-1.38,4.23,4.23,0,0,0-2-.5,4.12,4.12,0,0,0-3.62,2A9.42,9.42,0,0,0,26,24.57a5.84,5.84,0,0,1-.93,1.81,1.84,1.84,0,0,1-1.52.63,2,2,0,0,1-1.46-.58,2.16,2.16,0,0,1-.58-1.58,6.5,6.5,0,0,1,.55-2.53,7.14,7.14,0,0,1,1.62-2.39,7.84,7.84,0,0,1,2.75-1.73,10.46,10.46,0,0,1,3.89-.66,11.33,11.33,0,0,1,4.59.84,6.76,6.76,0,0,1,2.16,1.55,7.16,7.16,0,0,1,1.45,2.27,7.06,7.06,0,0,1,.52,2.68,7.51,7.51,0,0,1-1.08,4,12.17,12.17,0,0,1-2.21,2.79c-.75.68-2,1.73-3.77,3.18a29.27,29.27,0,0,0-3.63,3.35A9.82,9.82,0,0,0,27.53,39.32Z"/></g></g></svg>