<svg xmlns="http://www.w3.org/2000/svg" viewBox="0 0 61 61"><defs><style>.cls-1{fill:#c4e9ec;}.cls-2{fill:#fff;}</style></defs><g id="Layer_2" data-name="Layer 2"><g id="Layer_1-2" data-name="Layer 1"><circle class="cls-1" cx="30.5" cy="30.5" r="30.5"/><path class="cls-2" d="M26.17,29.3a7.91,7.91,0,0,1,2.6-2.1,7,7,0,0,1,3.15-.69,7.63,7.63,0,0,1,3.08.62,7.5,7.5,0,0,1,2.48,1.78,8,8,0,0,1,1.64,2.72,9.22,9.22,0,0,1,.58,3.26,9.06,9.06,0,0,1-1.13,4.5,8.09,8.09,0,0,1-3.17,3.16,9.19,9.19,0,0,1-4.59,1.13A8.49,8.49,0,0,1,22.43,38a18.66,18.66,0,0,1-1.13-6.9A23.83,23.83,0,0,1,22,25.14a12.62,12.62,0,0,1,2-4.34,8.32,8.32,0,0,1,3.11-2.6,9.46,9.46,0,0,1,4.17-.88,8.5,8.5,0,0,1,4,.88,6.58,6.58,0,0,1,2.59,2.18,4.47,4.47,0,0,1,.87,2.49,1.86,1.86,0,0,1-.55,1.31,1.81,1.81,0,0,1-1.39.59,2.27,2.27,0,0,1-1.37-.47A2.7,2.7,0,0,1,34.41,23a3.68,3.68,0,0,0-1.28-1.69,3.38,3.38,0,0,0-2-.65,3.68,3.68,0,0,0-1.86.54,4.87,4.87,0,0,0-1.55,1.45C26.82,23.9,26.32,26.12,26.17,29.3Zm4.74,10.92a3.59,3.59,0,0,0,2.94-1.45A5.93,5.93,0,0,0,35,35a6.31,6.31,0,0,0-.55-2.75A4.09,4.09,0,0,0,33,30.46a3.76,3.76,0,0,0-2.09-.61,4.07,4.07,0,0,0-2.09.58,4.3,4.3,0,0,0-1.59,1.68,5.17,5.17,0,0,0-.61,2.57,6.26,6.26,0,0,0,1.23,4A3.77,3.77,0,0,0,30.91,40.22Z"/></g></g></svg>