<svg xmlns="http://www.w3.org/2000/svg" viewBox="0 0 61 61"><defs><style>.cls-1{fill:#c4e9ec;}.cls-2{fill:#fff;}</style></defs><g id="Layer_2" data-name="Layer 2"><g id="Layer_1-2" data-name="Layer 1"><circle class="cls-1" cx="30.5" cy="30.5" r="30.5"/><path class="cls-2" d="M29.6,27.67a4.31,4.31,0,0,0,2.79-1A3.3,3.3,0,0,0,33.56,24a3.25,3.25,0,0,0-.93-2.33,3.32,3.32,0,0,0-2.52-1,4.45,4.45,0,0,0-1.76.3,2.79,2.79,0,0,0-1.1.79,5.91,5.91,0,0,0-.77,1.27c-.24.51-.46,1-.66,1.46a1.2,1.2,0,0,1-.63.58,2.46,2.46,0,0,1-1.05.21,1.85,1.85,0,0,1-1.3-.57,2,2,0,0,1-.58-1.52,4,4,0,0,1,.55-1.93,6.94,6.94,0,0,1,1.62-1.92,8.17,8.17,0,0,1,2.64-1.47,10.64,10.64,0,0,1,3.54-.56,9.9,9.9,0,0,1,3.11.47,7.4,7.4,0,0,1,2.44,1.34,5.82,5.82,0,0,1,2.09,4.54,5.66,5.66,0,0,1-.76,3,10.21,10.21,0,0,1-2.19,2.46,9.82,9.82,0,0,1,2.31,1.68,6.26,6.26,0,0,1,1.89,4.59,7.75,7.75,0,0,1-.64,3.1A8,8,0,0,1,37,41.18,9,9,0,0,1,34,43a10.51,10.51,0,0,1-3.79.66,9.11,9.11,0,0,1-3.78-.76A8.6,8.6,0,0,1,23.69,41a8.72,8.72,0,0,1-1.64-2.35,5,5,0,0,1-.55-2A2.14,2.14,0,0,1,22.16,35a2.29,2.29,0,0,1,1.64-.63,1.76,1.76,0,0,1,.95.29,1.37,1.37,0,0,1,.6.7,11.76,11.76,0,0,0,2,3.63,3.72,3.72,0,0,0,2.94,1.18,4.48,4.48,0,0,0,2.1-.53A4.38,4.38,0,0,0,34,38.08a4.54,4.54,0,0,0,.66-2.45,4.44,4.44,0,0,0-1.12-3.22,4.13,4.13,0,0,0-3.13-1.17c-.23,0-.6,0-1.09.07s-.81.07-.95.07a2.14,2.14,0,0,1-1.49-.48,1.72,1.72,0,0,1-.53-1.35A1.67,1.67,0,0,1,27,28.19a2.89,2.89,0,0,1,1.88-.52Z"/></g></g></svg>