<svg xmlns="http://www.w3.org/2000/svg" viewBox="0 0 61 61"><defs><style>.cls-1{fill:#c4e9ec;}.cls-2{fill:#fff;}</style></defs><g id="Layer_2" data-name="Layer 2"><g id="Layer_1-2" data-name="Layer 1"><circle class="cls-1" cx="30.5" cy="30.5" r="30.5"/><path class="cls-2" d="M32.51,41.1V37.83H23.69a3.62,3.62,0,0,1-2.51-.76,2.64,2.64,0,0,1-.83-2,2,2,0,0,1,.12-.68,3.53,3.53,0,0,1,.37-.72c.16-.25.33-.49.51-.73L22,32l9.32-12.46a14.75,14.75,0,0,1,1.5-1.79,2,2,0,0,1,1.42-.55q2.67,0,2.67,3.06v13.6h.75a5.4,5.4,0,0,1,2.17.37,1.59,1.59,0,0,1,.82,1.62A1.66,1.66,0,0,1,40,37.36a3.49,3.49,0,0,1-2,.47H36.91V41.1a2.91,2.91,0,0,1-.6,2,2.05,2.05,0,0,1-1.6.66,2,2,0,0,1-1.59-.68A2.86,2.86,0,0,1,32.51,41.1ZM25,33.89h7.56V23.68Z"/></g></g></svg>