<svg xmlns="http://www.w3.org/2000/svg" viewBox="0 0 61 61"><defs><style>.cls-1{fill:#c4e9ec;}.cls-2{fill:#fff;}</style></defs><g id="Layer_2" data-name="Layer 2"><g id="Layer_1-2" data-name="Layer 1"><circle class="cls-1" cx="30.5" cy="30.5" r="30.5"/><path class="cls-2" d="M24.51,17.52H36.22a4.32,4.32,0,0,1,2.45.53,2,2,0,0,1,.75,1.74,3.66,3.66,0,0,1-.89,1.95c-.59.81-1.26,1.7-2,2.68a28.39,28.39,0,0,0-4.54,9c-.28.93-.48,1.69-.6,2.3s-.25,1.4-.39,2.38-.26,1.71-.37,2.23a5.06,5.06,0,0,1-1,2.49,2.4,2.4,0,0,1-1.8.69A2.18,2.18,0,0,1,26,42.73a3.26,3.26,0,0,1-.65-2.2,13.53,13.53,0,0,1,.48-3.06,34.76,34.76,0,0,1,1.55-4.63A43,43,0,0,1,30.1,27.3a44.23,44.23,0,0,1,3.82-5.65H24.51a3.68,3.68,0,0,1-2.2-.54,1.92,1.92,0,0,1-.73-1.68,1.54,1.54,0,0,1,.77-1.56A5.46,5.46,0,0,1,24.51,17.52Z"/></g></g></svg>