<svg xmlns="http://www.w3.org/2000/svg" viewBox="0 0 61 61"><defs><style>.cls-1{fill:#c4e9ec;}.cls-2{fill:#fff;}</style></defs><g id="Layer_2" data-name="Layer 2"><g id="Layer_1-2" data-name="Layer 1"><circle class="cls-1" cx="30.5" cy="30.5" r="30.5"/><path class="cls-2" d="M32.06,40.84v-16c-3,2.29-5,3.43-6,3.43a1.81,1.81,0,0,1-1.31-.59,1.9,1.9,0,0,1-.57-1.36A1.53,1.53,0,0,1,24.73,25a11.77,11.77,0,0,1,2-1.09,14.79,14.79,0,0,0,3.4-2.11,14.35,14.35,0,0,0,2.26-2.48c.66-.91,1.09-1.48,1.29-1.69a1.52,1.52,0,0,1,1.12-.31,1.79,1.79,0,0,1,1.49.72,3.11,3.11,0,0,1,.57,2V40.15c0,2.36-.81,3.53-2.41,3.53A2.19,2.19,0,0,1,32.71,43,3,3,0,0,1,32.06,40.84Z"/></g></g></svg>