<svg xmlns="http://www.w3.org/2000/svg" viewBox="0 0 61 61"><defs><style>.cls-1{fill:#c4e9ec;}.cls-2{fill:#fff;}</style></defs><g id="Layer_2" data-name="Layer 2"><g id="Layer_1-2" data-name="Layer 1"><circle class="cls-1" cx="30.5" cy="30.5" r="30.5"/><path class="cls-2" d="M36.2,21.63H27.85l-1,5.7A9.91,9.91,0,0,1,31.45,26a7.88,7.88,0,0,1,3.15.63,8.35,8.35,0,0,1,2.58,1.75A8.14,8.14,0,0,1,38.92,31a8.53,8.53,0,0,1,.63,3.29A9.58,9.58,0,0,1,38.41,39a8.43,8.43,0,0,1-3.3,3.32,9.81,9.81,0,0,1-5,1.23A10,10,0,0,1,25,42.34a7.3,7.3,0,0,1-2.78-2.66,5.76,5.76,0,0,1-.81-2.63,2,2,0,0,1,2-1.92,2.35,2.35,0,0,1,2.2,1.71,5.93,5.93,0,0,0,1.9,2.43,4.4,4.4,0,0,0,2.67.87,4.06,4.06,0,0,0,2.37-.7,4.55,4.55,0,0,0,1.58-1.94,6.88,6.88,0,0,0,.55-2.79,6.32,6.32,0,0,0-.6-2.88A4.19,4.19,0,0,0,32.52,30a4.35,4.35,0,0,0-2.23-.59,4.69,4.69,0,0,0-2.16.37,19.18,19.18,0,0,0-1.88,1.3,3.69,3.69,0,0,1-2,.92,2.18,2.18,0,0,1-1.53-.63A1.89,1.89,0,0,1,22,30c0-.06.07-.46.2-1.2l1.47-8.42a4,4,0,0,1,.92-2.19,2.92,2.92,0,0,1,2.18-.69h9.28c1.83,0,2.74.7,2.74,2.09a1.84,1.84,0,0,1-.67,1.48A3,3,0,0,1,36.2,21.63Z"/></g></g></svg>