<svg xmlns="http://www.w3.org/2000/svg" viewBox="0 0 61 61"><defs><style>.cls-1{fill:#c4e9ec;}.cls-2{fill:#fff;}</style></defs><g id="Layer_2" data-name="Layer 2"><g id="Layer_1-2" data-name="Layer 1"><circle class="cls-1" cx="30.5" cy="30.5" r="30.5"/><path class="cls-2" d="M22.22,24.05a6.18,6.18,0,0,1,1-3.31A6.72,6.72,0,0,1,26,18.25a9.55,9.55,0,0,1,4.33-.93,11.41,11.41,0,0,1,3.68.54,7.55,7.55,0,0,1,2.63,1.5,6.06,6.06,0,0,1,1.57,2.17,6.45,6.45,0,0,1,.51,2.55,5.5,5.5,0,0,1-.89,3.08,6.51,6.51,0,0,1-2.64,2.22,7.23,7.23,0,0,1,2.47,1.52,6,6,0,0,1,1.49,2.18,7.32,7.32,0,0,1,.5,2.75,7.74,7.74,0,0,1-1.07,4,7.35,7.35,0,0,1-3.15,2.82,10.93,10.93,0,0,1-4.88,1,11.26,11.26,0,0,1-5-1,7.26,7.26,0,0,1-3.13-2.8,7.73,7.73,0,0,1-1.05-4,6.45,6.45,0,0,1,4.46-6.48A5.59,5.59,0,0,1,22.22,24.05Zm12.6,11.64a4.84,4.84,0,0,0-.56-2.4,3.83,3.83,0,0,0-1.58-1.56,4.81,4.81,0,0,0-2.29-.54,4.09,4.09,0,0,0-3,1.19,4.47,4.47,0,0,0-1.21,3.34,5,5,0,0,0,.57,2.42,4.14,4.14,0,0,0,1.55,1.61,4.23,4.23,0,0,0,2.2.58,4.31,4.31,0,0,0,2.21-.58,4.09,4.09,0,0,0,1.55-1.64A5,5,0,0,0,34.82,35.69Zm-4.39-15a3.5,3.5,0,0,0-3.67,3.68,3.29,3.29,0,0,0,1,2.48,3.69,3.69,0,0,0,2.67,1A4,4,0,0,0,32,27.56a3.31,3.31,0,0,0,1.91-1.83,3.82,3.82,0,0,0,.26-1.42,3.72,3.72,0,0,0-.47-1.86,3.28,3.28,0,0,0-1.31-1.3A3.81,3.81,0,0,0,30.43,20.67Z"/></g></g></svg>