<svg xmlns="http://www.w3.org/2000/svg" xmlns:xlink="http://www.w3.org/1999/xlink" viewBox="0 0 173.13 94.23"><defs><style>.cls-1{fill:#2eadba;}.cls-2,.cls-3{fill:none;stroke:#f1f1f1;stroke-linecap:round;stroke-linejoin:round;}.cls-2{stroke-width:1.44px;}.cls-4,.cls-5,.cls-6{fill:#f1f1f1;}.cls-4,.cls-5{stroke-miterlimit:10;}.cls-4{stroke-width:1.68px;stroke:url(#Naamloos_verloop_4);}.cls-5{stroke:url(#Naamloos_verloop_4-2);}</style><linearGradient id="Naamloos_verloop_4" x1="71.86" y1="-5248.96" x2="120.48" y2="-5248.96" gradientTransform="matrix(1, 0, 0, -1, -11, -5206.22)" gradientUnits="userSpaceOnUse"><stop offset="0" stop-color="#03a1b0"/><stop offset="1" stop-color="#6db9b8"/><stop offset="1"/></linearGradient><linearGradient id="Naamloos_verloop_4-2" x1="76.86" y1="-5214.69" x2="114.88" y2="-5214.69" xlink:href="#Naamloos_verloop_4"/></defs><g id="Layer_2" data-name="Layer 2"><g id="Layer_1-2" data-name="Layer 1"><path class="cls-1" d="M14.07,91.64l-.94-2.5H5.06l-.94,2.54a9.14,9.14,0,0,1-.94,2,1.51,1.51,0,0,1-1.28.53,1.9,1.9,0,0,1-1.35-.56A1.68,1.68,0,0,1,0,92.41a3,3,0,0,1,.13-.84q.14-.43.45-1.2L5.65,77.51c.14-.38.31-.82.52-1.35a6.46,6.46,0,0,1,.64-1.29,2.56,2.56,0,0,1,.9-.83,2.65,2.65,0,0,1,1.38-.32,2.63,2.63,0,0,1,2.29,1.13A6.23,6.23,0,0,1,12,75.93c.16.38.36.9.6,1.54l5.18,12.79a6.57,6.57,0,0,1,.63,2.12,1.78,1.78,0,0,1-.6,1.25,1.88,1.88,0,0,1-1.38.57,1.74,1.74,0,0,1-.81-.17,1.78,1.78,0,0,1-.57-.45,4.36,4.36,0,0,1-.49-.9C14.34,92.28,14.2,91.94,14.07,91.64Zm9.7-17.57H29a14.09,14.09,0,0,1,3.49.38,6.44,6.44,0,0,1,2.65,1.42q3.09,2.66,3.09,8a16.15,16.15,0,0,1-.31,3.26,9.56,9.56,0,0,1-1,2.65A8,8,0,0,1,35.29,92a6.74,6.74,0,0,1-1.74,1.15,8.05,8.05,0,0,1-2,.61,15.44,15.44,0,0,1-2.45.17H23.85a3.21,3.21,0,0,1-1.64-.33,1.52,1.52,0,0,1-.7-.93,5.49,5.49,0,0,1-.17-1.56V76.53a2.61,2.61,0,0,1,.58-1.88,2.63,2.63,0,0,1,1.85-.58Zm20.45,0h5.22a14.23,14.23,0,0,1,3.5.38,6.41,6.41,0,0,1,2.64,1.42q3.09,2.66,3.09,8a15.46,15.46,0,0,1-.31,3.26,9.56,9.56,0,0,1-1,2.65A8,8,0,0,1,55.74,92,6.58,6.58,0,0,1,54,93.1a7.93,7.93,0,0,1-2,.61,15.44,15.44,0,0,1-2.45.17H44.3a3.23,3.23,0,0,1-1.64-.33,1.49,1.49,0,0,1-.72-.93,5.49,5.49,0,0,1-.17-1.56V76.53a2.11,2.11,0,0,1,1.68-2.46A2.49,2.49,0,0,1,44.22,74.07Zm18.13,17.7V76.17a2.65,2.65,0,0,1,.56-1.84,1.83,1.83,0,0,1,1.42-.61,1.92,1.92,0,0,1,1.47.6,2.63,2.63,0,0,1,.56,1.83V91.76a2.65,2.65,0,0,1-.56,1.84,1.9,1.9,0,0,1-1.47.61,1.87,1.87,0,0,1-1.42-.62,2.69,2.69,0,0,1-.56-1.82Zm25.34-4.14a5.13,5.13,0,0,1-.45,2,7.52,7.52,0,0,1-4,3.89,9.32,9.32,0,0,1-3.61.66,12.38,12.38,0,0,1-2.85-.3,7.61,7.61,0,0,1-4.25-2.58,10.16,10.16,0,0,1-1.35-2.08,10.86,10.86,0,0,1-.82-2.47A13,13,0,0,1,70.05,84a12.52,12.52,0,0,1,.69-4.29,9.19,9.19,0,0,1,2-3.24,8.58,8.58,0,0,1,3-2,10,10,0,0,1,3.71-.71,9.43,9.43,0,0,1,4.27,1,7.73,7.73,0,0,1,2.88,2.38,4.6,4.6,0,0,1,1,2.66A1.72,1.72,0,0,1,87.14,81a1.53,1.53,0,0,1-1.17.53,1.64,1.64,0,0,1-1.16-.37A5.51,5.51,0,0,1,84,79.85a5.82,5.82,0,0,0-1.84-2.19,4.45,4.45,0,0,0-2.6-.74,4.75,4.75,0,0,0-3.94,1.88,8.49,8.49,0,0,0-1.46,5.34A9.94,9.94,0,0,0,74.76,88a4.83,4.83,0,0,0,1.83,2.28,5,5,0,0,0,2.78.76,4.82,4.82,0,0,0,2.92-.86,5.11,5.11,0,0,0,1.79-2.52,4.39,4.39,0,0,1,.64-1.28,1.43,1.43,0,0,1,1.21-.49,1.72,1.72,0,0,1,1.23.5A1.69,1.69,0,0,1,87.69,87.63Zm16.26,4-1-2.5H95L94,91.68a8.73,8.73,0,0,1-1,2,1.5,1.5,0,0,1-1.28.53,1.88,1.88,0,0,1-1.34-.56,1.67,1.67,0,0,1-.59-1.25,3,3,0,0,1,.14-.84q.14-.44.45-1.2l5.06-12.87L96,76.15a7.18,7.18,0,0,1,.65-1.3,2.75,2.75,0,0,1,.9-.83,3.2,3.2,0,0,1,2.77,0,2.62,2.62,0,0,1,.9.82,5.62,5.62,0,0,1,.58,1.08c.16.38.36.9.6,1.53l5.17,12.78a6.34,6.34,0,0,1,.6,2.13,1.71,1.71,0,0,1-.57,1.26,1.88,1.88,0,0,1-1.38.57,1.74,1.74,0,0,1-.81-.17,1.65,1.65,0,0,1-.57-.45,4.28,4.28,0,0,1-.49-.89C104.22,92.28,104.07,91.94,104,91.64Zm17.63-14.26h-4.37V91.77a2.68,2.68,0,0,1-.56,1.85,1.84,1.84,0,0,1-1.43.6,1.87,1.87,0,0,1-1.45-.61,2.64,2.64,0,0,1-.56-1.84V77.38h-4.37a2.14,2.14,0,0,1-1.52-.45,1.68,1.68,0,0,1,0-2.41,2.19,2.19,0,0,1,1.5-.45h12.74a2.19,2.19,0,0,1,1.54.45,1.57,1.57,0,0,1,.51,1.2,1.49,1.49,0,0,1-.52,1.2A2.21,2.21,0,0,1,121.58,77.38Zm4.58,14.39V76.17a2.68,2.68,0,0,1,.56-1.83,1.87,1.87,0,0,1,1.43-.61,1.92,1.92,0,0,1,1.46.6,2.65,2.65,0,0,1,.56,1.84v15.6a2.64,2.64,0,0,1-.56,1.84,1.89,1.89,0,0,1-1.46.61,1.86,1.86,0,0,1-1.43-.62A2.71,2.71,0,0,1,126.16,91.77Zm17.21-18A10.49,10.49,0,0,1,148.66,75,8.05,8.05,0,0,1,152,78.54,12,12,0,0,1,153.13,84a13.05,13.05,0,0,1-.62,4.17,9,9,0,0,1-1.86,3.26,8.21,8.21,0,0,1-3.06,2.11,11.94,11.94,0,0,1-8.29,0,8.13,8.13,0,0,1-3.06-2.11,8.89,8.89,0,0,1-1.86-3.29,13.55,13.55,0,0,1-.63-4.14,12.93,12.93,0,0,1,.66-4.19,8.81,8.81,0,0,1,1.89-3.24,8.11,8.11,0,0,1,3-2A11,11,0,0,1,143.37,73.73Zm18.37,2.39,7.71,11.67V76a2.59,2.59,0,0,1,.49-1.72,1.67,1.67,0,0,1,1.34-.58,1.7,1.7,0,0,1,1.35.58,2.58,2.58,0,0,1,.49,1.72V91.61c0,1.74-.71,2.61-2.16,2.61a3.15,3.15,0,0,1-1-.15,2.5,2.5,0,0,1-.81-.5,4.83,4.83,0,0,1-.71-.79c-.21-.3-.45-.61-.64-.93l-7.52-11.53v11.6a2.48,2.48,0,0,1-.52,1.72,1.88,1.88,0,0,1-2.65.07.46.46,0,0,0-.07-.07,2.56,2.56,0,0,1-.51-1.71V76.67a4.34,4.34,0,0,1,.22-1.52,2.13,2.13,0,0,1,.85-1,2.35,2.35,0,0,1,1.28-.39,2.11,2.11,0,0,1,1.6.66,4.49,4.49,0,0,1,.59.77Z"/><path class="cls-1" d="M58.91,5.8h53.76a18.88,18.88,0,0,1,18.86,18.89h0a18.87,18.87,0,0,1-18.86,18.88H58.91A18.86,18.86,0,0,1,40.06,24.69h0A18.87,18.87,0,0,1,58.91,5.8Z"/><line class="cls-2" x1="85.57" y1="11.02" x2="85.57" y2="39.07"/><path class="cls-3" d="M62.82,22.13V19a2.56,2.56,0,1,1,5.11,0v3.15"/><path class="cls-3" d="M67.93,27.25v3.14a2.56,2.56,0,1,1-5.11,0V27.25"/><path class="cls-3" d="M62.82,27.25H59.68a2.56,2.56,0,0,1,0-5.12h3.14"/><ellipse class="cls-3" cx="106.31" cy="19.17" rx="2.69" ry="2.7"/><ellipse class="cls-3" cx="112.21" cy="24.56" rx="2.69" ry="2.7"/><ellipse class="cls-3" cx="106.31" cy="30.21" rx="2.69" ry="2.7"/><ellipse class="cls-3" cx="100.16" cy="24.81" rx="2.69" ry="2.7"/><path class="cls-4" d="M108.62,43.56c0,8.08-10.65,14.62-23.56,14.62S61.7,51.63,61.7,43.55m32.34-5c-4.48,1.12-6.91,1.48-6.91,5m21.51.2c0-1.16,0-1.66-1.79-4.82a76.27,76.27,0,0,0-4.63-7.73,46,46,0,0,0-3.09-3.86c-10.66-.05-18.5-.05-18.51,0a.47.47,0,0,0,0,.12h0c-.41,4.71,1.56,6.83,1.56,6.83,1,1.12,2.75,1.26,6.17,1.54a37.39,37.39,0,0,0,6.17,0,8.86,8.86,0,0,0-.47,3.49"/><path class="cls-5" d="M70.4,13.49h-.23a3.83,3.83,0,0,1-3.81-3.82V5.45a3.82,3.82,0,0,1,3.81-3.81h.23a3.81,3.81,0,0,1,3.81,3.81V9.67A3.82,3.82,0,0,1,70.4,13.49ZM84.68,11V5.14A3.62,3.62,0,0,0,81.1,1.52h-.74a3.61,3.61,0,0,0-3.61,3.62V11a3.61,3.61,0,0,0,3.59,3.62h.76A3.61,3.61,0,0,0,84.68,11Zm9.23,1.83V4.09A3.58,3.58,0,0,0,90.33.5h0a3.59,3.59,0,0,0-3.59,3.59v8.76a3.59,3.59,0,0,0,3.59,3.59h0A3.58,3.58,0,0,0,93.91,12.85Zm9.47-1V5.31a3.55,3.55,0,0,0-3.53-3.54h-.26a3.54,3.54,0,0,0-3.53,3.54v6.57a3.54,3.54,0,0,0,3.53,3.53h.26a3.54,3.54,0,0,0,3.53-3.53Z"/><path class="cls-6" d="M105.88,41.41c-1.9-.17-3.94-.18-5.9-.38,0,0-.45-.85-.54-.94a2.26,2.26,0,0,0-.94-.64,11.7,11.7,0,0,0-2-.82,6.43,6.43,0,0,0-2.65.32c-.74.21-1.51.39-2.24.66a8.39,8.39,0,0,0-2,1.12A5,5,0,0,0,88,42.24a2.37,2.37,0,0,0,.63,3.1c-.79,2.28,2.53,4.38,4,2.09a17.69,17.69,0,0,1,2.74-3.24,2.76,2.76,0,0,0,2,1.11c2.63.45,5.41.48,8.07.7C108.43,46.26,108.84,41.66,105.88,41.41Z"/><path class="cls-3" d="M68.24,22.42l3.05,0a2.53,2.53,0,0,1,.07,5.05l-3.06,0"/></g></g></svg>