<svg xmlns="http://www.w3.org/2000/svg" xmlns:xlink="http://www.w3.org/1999/xlink" viewBox="0 0 80.21 71.96"><defs><style>.cls-1{fill:url(#linear-gradient);}.cls-2{fill:url(#linear-gradient-2);}.cls-3{fill:url(#linear-gradient-3);}</style><linearGradient id="linear-gradient" x1="-30.15" y1="0.27" x2="110.02" y2="91.42" gradientUnits="userSpaceOnUse"><stop offset="0" stop-color="#4abcd0"/><stop offset="1" stop-color="#c4e9ec"/></linearGradient><linearGradient id="linear-gradient-2" x1="-25.23" y1="-7.29" x2="114.94" y2="83.86" xlink:href="#linear-gradient"/><linearGradient id="linear-gradient-3" x1="-34.18" y1="6.47" x2="105.99" y2="97.62" xlink:href="#linear-gradient"/></defs><g id="Layer_2" data-name="Layer 2"><g id="Layer_1-2" data-name="Layer 1"><path class="cls-1" d="M70.76,72H9.45A9.43,9.43,0,0,1,1.28,57.81L31.94,4.72a9.42,9.42,0,0,1,16.33,0l30.66,53.1A9.43,9.43,0,0,1,70.76,72ZM40.1,4.7A4.65,4.65,0,0,0,36,7.07L5.35,60.16a4.73,4.73,0,0,0,4.1,7.1H70.76a4.73,4.73,0,0,0,4.1-7.1L44.2,7.07A4.67,4.67,0,0,0,40.1,4.7Z"/><rect class="cls-2" x="37.75" y="23.45" width="4.7" height="23.5"/><path class="cls-3" d="M40.1,57.91a3.14,3.14,0,1,1,3.14-3.13A3.14,3.14,0,0,1,40.1,57.91Z"/></g></g></svg>