<svg xmlns="http://www.w3.org/2000/svg" xmlns:xlink="http://www.w3.org/1999/xlink" viewBox="0 0 75 98.46"><defs><style>.cls-1{fill:url(#linear-gradient);}.cls-2{fill:url(#linear-gradient-2);}.cls-3{fill:url(#linear-gradient-3);}.cls-4{fill:url(#linear-gradient-4);}.cls-5{fill:url(#linear-gradient-5);}.cls-6{fill:url(#linear-gradient-6);}.cls-7{fill:url(#linear-gradient-7);}</style><linearGradient id="linear-gradient" x1="-25.09" y1="-18.39" x2="71.58" y2="102.12" gradientUnits="userSpaceOnUse"><stop offset="0" stop-color="#4abcd0"/><stop offset="1" stop-color="#c4e6ea"/></linearGradient><linearGradient id="linear-gradient-2" x1="-8.59" y1="-31.62" x2="88.08" y2="88.89" xlink:href="#linear-gradient"/><linearGradient id="linear-gradient-3" x1="-17.98" y1="-24.09" x2="78.69" y2="96.42" xlink:href="#linear-gradient"/><linearGradient id="linear-gradient-4" x1="-27.34" y1="-16.58" x2="69.33" y2="103.93" xlink:href="#linear-gradient"/><linearGradient id="linear-gradient-5" x1="-23.84" y1="-19.39" x2="72.82" y2="101.13" xlink:href="#linear-gradient"/><linearGradient id="linear-gradient-6" x1="-33.95" y1="-11.28" x2="62.72" y2="109.23" xlink:href="#linear-gradient"/><linearGradient id="linear-gradient-7" x1="-43.33" y1="-3.75" x2="53.33" y2="116.76" xlink:href="#linear-gradient"/></defs><g id="Layer_2" data-name="Layer 2"><g id="Layer_1-2" data-name="Layer 1"><path class="cls-1" d="M73,22.8,52.2,2a6.69,6.69,0,0,0-4.76-2H6.73A6.74,6.74,0,0,0,0,6.73v85a6.74,6.74,0,0,0,6.73,6.73H68.27A6.74,6.74,0,0,0,75,91.73V27.56a6.69,6.69,0,0,0-2-4.76Zm-7.88.28H52.88a1,1,0,0,1-1-1V9.85Zm3.12,69.61H6.73a1,1,0,0,1-1-1v-85a1,1,0,0,1,1-1H46.15V22.12a6.74,6.74,0,0,0,6.73,6.73H69.23V91.73a1,1,0,0,1-1,1Z"/><path class="cls-2" d="M40.6,44H59a2.89,2.89,0,0,0,0-5.77H40.6a2.89,2.89,0,1,0,0,5.77Z"/><path class="cls-3" d="M40.6,63.27H59a2.89,2.89,0,0,0,0-5.77H40.6a2.89,2.89,0,1,0,0,5.77Z"/><path class="cls-4" d="M59.06,76.73H40.6a2.89,2.89,0,1,0,0,5.77H59.06a2.89,2.89,0,0,0,0-5.77Z"/><path class="cls-5" d="M26.2,33.3,19.55,40,18,38.38a2.88,2.88,0,0,0-4.08,4.08l3.61,3.61a2.87,2.87,0,0,0,4.08,0l8.69-8.69A2.88,2.88,0,0,0,26.2,33.3Z"/><path class="cls-6" d="M26.2,54l-6.65,6.65L18,59.08a2.88,2.88,0,0,0-4.08,4.08l3.61,3.61a2.87,2.87,0,0,0,4.08,0l8.69-8.69A2.88,2.88,0,1,0,26.2,54Z"/><path class="cls-7" d="M26.2,73.23l-6.65,6.65L18,78.31a2.88,2.88,0,1,0-4.08,4.08L17.51,86a2.87,2.87,0,0,0,4.08,0l8.69-8.69a2.88,2.88,0,0,0-4.08-4.08Z"/></g></g></svg>