<svg xmlns="http://www.w3.org/2000/svg" xmlns:xlink="http://www.w3.org/1999/xlink" viewBox="0 0 84.33 96.38"><defs><style>.cls-1{fill:url(#Naamloos_verloop_3);}</style><linearGradient id="Naamloos_verloop_3" x1="42.03" y1="-5223.4" x2="42.03" y2="-5319.78" gradientTransform="matrix(1, 0, 0, -1, 0.14, -5223.4)" gradientUnits="userSpaceOnUse"><stop offset="0" stop-color="#46bacf"/><stop offset="1" stop-color="#7acee0"/></linearGradient></defs><g id="Layer_2" data-name="Layer 2"><g id="Layer_1-2" data-name="Layer 1"><path class="cls-1" d="M42.16,48.19A22.89,22.89,0,0,1,29.93,45a21.37,21.37,0,0,1-8.66-8.66,22.9,22.9,0,0,1-3.2-12.24,22.63,22.63,0,0,1,3.2-12A23,23,0,0,1,29.93,3.2a24.63,24.63,0,0,1,24.28,0,24.85,24.85,0,0,1,8.85,8.85,24.63,24.63,0,0,1,0,24.28A23,23,0,0,1,54.21,45,22.67,22.67,0,0,1,42.16,48.19Zm17,6A24.85,24.85,0,0,1,71.72,57.6a27.11,27.11,0,0,1,9.22,9.22,24.89,24.89,0,0,1,3.39,12.62v7.9a9,9,0,0,1-9,9H9a8,8,0,0,1-6.41-2.64A8,8,0,0,1,0,87.34v-7.9A24.89,24.89,0,0,1,3.39,66.82a25.55,25.55,0,0,1,9.22-9.22,24.35,24.35,0,0,1,12.61-3.39h3.2a31.19,31.19,0,0,0,13.74,3,32.4,32.4,0,0,0,13.75-3Z"/></g></g></svg>